<?xml version="1.0" standalone="no"?><!DOCTYPE svg PUBLIC "-//W3C//DTD SVG 1.1//EN" "http://www.w3.org/Graphics/SVG/1.1/DTD/svg11.dtd"><svg t="1618385201460" class="icon" viewBox="0 0 1024 1024" version="1.1" xmlns="http://www.w3.org/2000/svg" p-id="2905" xmlns:xlink="http://www.w3.org/1999/xlink" width="200" height="200"><defs><style type="text/css"></style></defs><path d="M204.8 262.4a19.2 19.2 0 0 0-19.2 19.2v512c0 10.5984 8.6016 19.2 19.2 19.2h614.4a19.2 19.2 0 0 0 19.2-19.2v-512A19.2 19.2 0 0 0 819.2 262.4H204.8z m0-64h614.4c45.9264 0 83.2 37.2736 83.2 83.2v512c0 45.9264-37.2736 83.2-83.2 83.2H204.8A83.2 83.2 0 0 1 121.6 793.6v-512c0-45.9264 37.2736-83.2 83.2-83.2z" fill="#5A5A68" p-id="2906"></path><path d="M364.8 230.4a32 32 0 1 1-64 0V153.6a32 32 0 1 1 64 0v76.8zM723.2 230.4a32 32 0 1 1-64 0V153.6a32 32 0 1 1 64 0v76.8zM204.8 416a19.2 19.2 0 0 0-19.2 19.2v358.4c0 10.5984 8.6016 19.2 19.2 19.2h614.4a19.2 19.2 0 0 0 19.2-19.2v-358.4A19.2 19.2 0 0 0 819.2 416H204.8z m0-64h614.4c45.9264 0 83.2 37.2736 83.2 83.2v358.4c0 45.9264-37.2736 83.2-83.2 83.2H204.8A83.2 83.2 0 0 1 121.6 793.6v-358.4c0-45.9264 37.2736-83.2 83.2-83.2z" fill="#5A5A68" p-id="2907"></path><path d="M307.2 563.2a25.6 25.6 0 0 1 0-51.2h102.4a25.6 25.6 0 0 1 0 51.2H307.2zM307.2 716.8a25.6 25.6 0 1 1 0-51.2h102.4a25.6 25.6 0 1 1 0 51.2H307.2zM614.4 563.2a25.6 25.6 0 0 1 0-51.2h102.4a25.6 25.6 0 1 1 0 51.2h-102.4zM614.4 716.8a25.6 25.6 0 1 1 0-51.2h102.4a25.6 25.6 0 1 1 0 51.2h-102.4z" fill="#5A5A68" p-id="2908"></path></svg>